<svg width="172" height="40" viewBox="0 0 172 40" fill="none" xmlns="http://www.w3.org/2000/svg">
<g clip-path="url(#clip0_3232_12528)">
<path d="M61.6632 27.9485L64.9974 27.7835L64.9964 22.6282L67.1783 22.5202C71.6527 22.2987 75.1086 20.0608 74.6074 15.4109C74.2067 11.6935 71.0624 10.4191 67.1028 10.6151L61.6602 10.8845L61.6632 27.9485ZM64.9971 13.6034L67.0076 13.5039C69.7902 13.3662 71.0604 14.2887 71.2433 15.986C71.4508 17.9105 70.5357 19.4819 67.0421 19.6549L64.9948 19.7562L64.9971 13.6034ZM77.0929 18.7128C77.9794 18.0199 79.175 17.5642 80.5112 17.498C81.8105 17.4338 83.0289 17.8781 83.0118 19.5493L83.0041 19.8142L82.7216 19.8281C78.3946 20.0423 74.9098 21.2122 75.2628 24.4874C75.4754 26.4597 77.3617 27.4959 79.4334 27.3933C81.358 27.298 82.8611 26.4906 83.6803 24.9479C84.0698 26.2745 85.1842 26.7841 86.6805 26.7102L87.6366 26.6629L87.6375 24.2713C86.7301 24.3162 86.2773 24.0022 86.2756 22.9568L86.2782 19.4357C86.279 15.5542 83.4107 14.6747 80.8368 14.8022C78.8019 14.9029 77.3308 15.4324 76.0777 16.3836L77.0929 18.7128ZM83.0067 21.7847C83.0144 23.3465 82.0077 24.8625 80.328 24.9456C79.3841 24.9923 78.7712 24.566 78.6939 23.8489C78.5458 22.4743 80.3588 21.9158 82.7987 21.7951L83.0067 21.7847ZM89.4564 29.0843C89.0883 29.1024 88.7023 29.0615 88.2983 28.9733L87.9336 31.6472C88.591 31.8069 89.2141 31.8722 89.815 31.8424C92.6594 31.7017 94.1882 29.4268 95.1837 26.9982L100.552 14.1507L97.0831 14.3224L94.1094 22.521L94.0358 22.5246L91.0767 14.6197L87.4363 14.8L92.3829 26.1635L92.0551 26.9006C91.4671 28.1916 90.7438 29.0206 89.4564 29.0843ZM109.063 13.4049C107.065 13.5039 105.549 14.7566 104.771 16.5736L104.354 13.9625L101.829 14.0875L101.827 25.9604L105.087 25.7989L105.078 19.3102C105.09 17.5912 106.06 16.3054 107.716 16.2236C109.162 16.1519 109.781 16.9745 109.78 18.9093L109.782 25.5665L113.043 25.4051L113.034 18.9164C113.035 17.21 114.017 15.9116 115.671 15.8297C117.081 15.7599 117.735 16.5687 117.735 18.5154L117.738 25.1727L120.999 25.0114L120.995 17.9937C120.996 15.1575 120.071 12.86 117.019 13.0111C114.972 13.1124 113.515 14.3502 112.752 16.0703C112.278 14.4234 111.171 13.3005 109.063 13.4049ZM134.991 19.2595C135.013 19.1142 135.044 18.2596 134.959 17.4706C134.588 14.0281 131.984 12.2704 129.005 12.4179C125.008 12.6157 122.814 15.8127 123.208 19.4703C123.58 22.9247 126.277 25.0745 129.685 24.9059C131.904 24.796 133.695 23.9262 134.717 22.6619L133.363 20.614C132.596 21.4931 131.448 22.0546 130.014 22.1256C128.31 22.21 126.992 21.422 126.595 19.6752L134.991 19.2595ZM129.248 14.9053C130.89 14.824 131.8 15.9447 131.889 17.3462L126.533 17.6114C126.784 16.0607 127.74 14.98 129.248 14.9053ZM137.359 12.3287L137.357 24.2017L140.618 24.0402L140.608 17.5515C140.609 15.845 141.713 14.5406 143.369 14.4587C144.815 14.3871 145.654 15.1987 145.653 17.1335L145.656 23.7908L148.917 23.6294L148.924 16.6111C148.928 13.7869 147.707 11.492 144.679 11.6419C142.657 11.742 141.117 13.0079 140.326 14.8136L139.884 12.2037L137.359 12.3287ZM159.256 20.3297C159.256 20.3297 158.56 20.5083 157.825 20.5447C156.513 20.6096 155.759 20.2384 155.746 18.5206V14.0623L159.35 13.8839L159.349 11.2403L155.744 11.4186L155.749 8.14976L153.298 8.2711L152.666 11.559L150.489 12.0513L150.487 14.3226L152.473 14.2243L152.481 17.9493C152.483 18.4298 152.482 18.8864 152.516 19.3173C152.679 22.5419 154.158 23.4541 157.455 23.2908C158.301 23.249 159.489 22.9498 159.489 22.9498L159.256 20.3297ZM160.762 21.1804C161.735 22.0936 163.951 23.2097 166.708 23.0731C170.043 22.9081 171.7 21.0115 171.46 18.7882C171.202 16.3976 169.009 15.8332 166.666 15.3603C165.116 15.0405 164.332 14.863 164.253 14.1219C164.171 13.3689 164.908 12.8878 165.975 12.8349C167.36 12.7664 168.885 13.4239 169.784 14.2206L171.085 12.2215C170.186 11.3167 168.335 10.3748 165.895 10.4956C163.002 10.6387 160.866 12.1986 161.13 14.649C161.383 17.0038 163.535 17.5222 165.905 18.0177C167.267 18.2988 168.163 18.4949 168.245 19.2598C168.309 19.8575 167.832 20.4579 166.483 20.5247C164.742 20.6108 163.11 19.7543 162.1 18.9632L160.762 21.1804Z" fill="white"/>
<path fill-rule="evenodd" clip-rule="evenodd" d="M0 36.045V9.7268C0 8.04426 1.29806 6.71234 3.02117 6.62678L52.8343 4.15369C54.8704 4.05258 56.6603 5.71152 56.6603 7.69964V34.0446C56.6603 35.7278 55.3612 37.0599 53.6373 37.1446L3.82415 39.591C1.78868 39.691 0 38.0324 0 36.045ZM15.2226 30.2906L2.91515 30.8999L2.91211 13.8359L15.1337 13.2309L15.1326 16.3073L6.24526 16.7472L6.24723 20.6527L14.203 20.2589L14.2083 23.1667L6.25254 23.5605L6.25057 27.6584L15.2238 27.2142L15.2226 30.2906ZM22.1585 20.4299C20.8223 20.496 19.6267 20.9518 18.7402 21.6445L17.725 19.3154C18.9781 18.3641 20.4492 17.8347 22.4841 17.7339C25.0584 17.6065 27.926 18.486 27.9254 22.3675L27.9229 25.8886C27.9246 26.9341 28.3775 27.2481 29.2846 27.2032L29.2836 29.5946L28.3275 29.6419C26.8319 29.7159 25.7171 29.2064 25.3276 27.8797C24.508 29.4224 23.0053 30.2299 21.0807 30.3251C19.009 30.4276 17.1227 29.3914 16.9101 27.4191C16.5571 24.1439 20.0419 22.9741 24.3691 22.7598L24.6511 22.7459L24.6595 22.4811C24.6766 20.8099 23.4579 20.3655 22.1585 20.4299ZM21.9753 27.8775C23.6547 27.7943 24.6621 26.2784 24.654 24.7166L24.4456 24.7268C22.0061 24.8476 20.1931 25.406 20.3413 26.7806C20.4186 27.4978 21.0314 27.9242 21.9753 27.8775ZM36.3616 29.5687C33.6035 29.7052 31.3882 28.5891 30.4147 27.676L31.7531 25.4587C32.7628 26.2499 34.3955 27.1064 36.1362 27.0202C37.4846 26.9535 37.9622 26.353 37.8978 25.7553C37.8153 24.9904 36.9192 24.7944 35.5579 24.5133C33.1877 24.0178 31.0367 23.4994 30.7829 21.1445C30.5187 18.6942 32.6552 17.1344 35.5482 16.9911C37.9876 16.8704 39.8391 17.8122 40.7377 18.7171L39.4374 20.7161C38.5381 19.9195 37.013 19.2619 35.6278 19.3305C34.5613 19.3833 33.8244 19.8644 33.9056 20.6174C33.9855 21.3585 34.7687 21.5361 36.3191 21.8559C38.6622 22.3287 40.8551 22.8932 41.1127 25.2838C41.3524 27.5071 39.6959 29.4036 36.3616 29.5687ZM42.3237 31.2924C42.7275 31.3806 43.114 31.4215 43.4817 31.4033C44.7688 31.3396 45.4929 30.5107 46.0809 29.2198L46.4081 28.4825L41.4615 17.119L45.1022 16.9388L48.0616 24.8437L48.1352 24.84L51.1088 16.6415L54.5779 16.4697L49.2093 29.3173C48.214 31.7459 46.6846 34.0207 43.8406 34.1615C43.24 34.1912 42.6168 34.126 41.9587 33.9662L42.3237 31.2924Z" fill="#01C9BB"/>
</g>
<defs>
<clipPath id="clip0_3232_12528">
<rect width="172" height="40" fill="white"/>
</clipPath>
</defs>
</svg>
