<svg width="50" height="51" viewBox="0 0 50 51" fill="none" xmlns="http://www.w3.org/2000/svg">
<path d="M24.9995 50.001C38.7849 50.001 50 38.786 50 25.0005C50 11.2151 38.7849 0 24.9995 0C23.9609 0 23.1186 0.841803 23.1186 1.88086V11.5172C23.1186 12.5558 23.9604 13.3981 24.9995 13.3981C26.0381 13.3981 26.8803 12.5563 26.8803 11.5172V3.84389C37.7137 4.7994 46.2386 13.9228 46.2386 25.0001C46.2386 36.7111 36.7107 46.2391 24.9996 46.2391C13.2886 46.2391 3.76171 36.7112 3.76171 25.0012C3.76171 18.2431 7.02481 11.827 12.4907 7.836C13.3295 7.22334 13.5131 6.04705 12.9009 5.20777C12.2883 4.36902 11.112 4.18536 10.2727 4.79758C3.84042 9.49374 0 17.0459 0 25.0011C0 38.7865 11.2151 50.0016 25.0005 50.0016L24.9995 50.001Z" fill="#585EE6"/>
<path d="M14.883 21.5249C14.2554 22.6022 14.6196 23.9833 15.6979 24.6109L28.2991 31.9509C28.6564 32.1592 29.0469 32.2579 29.4326 32.2579C30.2097 32.2579 30.9659 31.8559 31.3846 31.1365C32.0123 30.0592 31.6481 28.6781 30.5697 28.0505L17.9686 20.7105C16.8933 20.0829 15.5106 20.4476 14.8829 21.5249H14.883Z" fill="#585EE6"/>
</svg>
