<svg width="50" height="50" viewBox="0 0 50 50" fill="none" xmlns="http://www.w3.org/2000/svg">
<path d="M3.23136 0C1.46369 0 0 1.46369 0 3.23137V20.4191C0 22.1868 1.46369 23.6505 3.23136 23.6505H20.6138C22.3815 23.6505 23.8456 22.1868 23.8456 20.4191V3.23137C23.8456 1.46369 22.3815 0 20.6138 0H3.23136ZM29.3862 0C27.6185 0 26.1544 1.46369 26.1544 3.23137V20.4191C26.1544 22.1868 27.6185 23.6505 29.3862 23.6505H46.7686C48.5363 23.6505 50 22.1868 50 20.4191V3.23137C50 1.46369 48.5363 0 46.7686 0H29.3862ZM3.23136 2.27255H20.6138C21.1619 2.27255 21.5729 2.68356 21.5729 3.23129V20.419C21.5729 20.9667 21.1619 21.3777 20.6138 21.3777H3.23136C2.68363 21.3777 2.27262 20.9667 2.27262 20.419V3.23129C2.27262 2.68356 2.68363 2.27255 3.23136 2.27255ZM29.3862 2.27255H46.7686C47.3164 2.27255 47.7274 2.68356 47.7274 3.23129V20.419C47.7274 20.9667 47.3164 21.3777 46.7686 21.3777H29.3862C28.8381 21.3777 28.4271 20.9667 28.4271 20.419V3.23129C28.4271 2.68356 28.8381 2.27255 29.3862 2.27255ZM29.3862 26.3495C27.6185 26.3495 26.1544 27.8132 26.1544 29.5809V46.7686C26.1544 48.5363 27.6185 50 29.3862 50H46.7686C48.5363 50 50 48.5363 50 46.7686V29.5809C50 27.8132 48.5363 26.3495 46.7686 26.3495H29.3862ZM11.9145 26.5449C11.314 26.5449 10.7699 27.0986 10.7782 27.6991V37.0384H1.42108C0.820624 37.0301 0.284398 37.5746 0.284398 38.1751C0.284398 38.7755 0.820644 39.3197 1.42108 39.3113H10.7782V48.6685C10.7699 49.2689 11.314 49.8226 11.9145 49.8226C12.5149 49.8226 13.0595 49.2689 13.0511 48.6685V39.3113H22.4083C23.0087 39.3197 23.5445 38.7755 23.5445 38.1751C23.5445 37.5746 23.0087 37.0301 22.4083 37.0384H13.0511V27.6991C13.0595 27.0986 12.5149 26.5449 11.9145 26.5449ZM29.3862 28.6222H46.7686C47.3164 28.6222 47.7274 29.0332 47.7274 29.5809V46.7686C47.7274 47.3164 47.3164 47.7274 46.7686 47.7274H29.3862C28.8381 47.7274 28.4271 47.3164 28.4271 46.7686V29.5809C28.4271 29.0332 28.8381 28.6222 29.3862 28.6222Z" fill="#585EE6"/>
</svg>
