<svg width="50" height="50" viewBox="0 0 50 50" fill="none" xmlns="http://www.w3.org/2000/svg">
<path d="M25 0C18.3696 0 12.0106 2.63395 7.32245 7.32245C2.63395 12.0109 0 18.3698 0 25C0 31.6302 2.63395 37.9894 7.32245 42.6775C12.0109 47.366 18.3698 50 25 50C31.6302 50 37.9894 47.366 42.6776 42.6775C47.366 37.9891 50 31.6302 50 25C49.9921 18.3718 47.3558 12.0177 42.6692 7.33078C37.9822 2.64419 31.6279 0.00785722 25 0V0ZM25 47.2231C19.1061 47.2231 13.4537 44.8816 9.28675 40.714C5.1191 36.5468 2.77765 30.8943 2.77765 25.0007C2.77765 19.1071 5.1191 13.4544 9.28675 9.28747C13.4539 5.11981 19.1064 2.77836 25 2.77836C30.8936 2.77836 36.5463 5.11981 40.7132 9.28747C44.8809 13.4547 47.2224 19.1071 47.2224 25.0007C47.2154 30.8922 44.8716 36.5406 40.7059 40.7068C36.5396 44.8726 30.8914 47.2164 24.9998 47.2233L25 47.2231ZM19.4442 19.4442C19.4442 21.7191 21.694 22.5581 25.3986 23.669C28.9333 24.7307 33.3334 26.05 33.3334 30.5558C33.3334 34.4002 30.0279 36.6143 26.3891 37.063V38.8892H23.6109V37.0625C22.1326 36.9104 20.7096 36.4156 19.4554 35.6181C17.7153 34.5243 16.661 32.6111 16.6666 30.5558H19.4442C19.4442 33.1809 22.3233 34.3751 25 34.3751C27.6762 34.3751 30.5558 33.1804 30.5558 30.5558C30.5558 28.2809 28.306 27.4419 24.6014 26.331C21.0667 25.2693 16.6666 23.95 16.6666 19.4442C16.6666 15.5998 19.9721 13.3857 23.6109 12.937V11.1108H26.3886V12.937C30.0274 13.3858 33.3329 15.5993 33.3329 19.4442H30.5558C30.5627 18.3175 29.9722 17.2711 29.0044 16.6944C27.7991 15.9629 26.4095 15.5919 25 15.6249C22.3238 15.6249 19.4442 16.8195 19.4442 19.4442V19.4442Z" fill="#585EE6"/>
</svg>
